<?xml version="1.0" encoding="utf-8"?>
<!-- Generator: Adobe Illustrator 25.4.1, SVG Export Plug-In . SVG Version: 6.00 Build 0)  -->
<svg version="1.1" id="Capa_1" xmlns="http://www.w3.org/2000/svg" xmlns:xlink="http://www.w3.org/1999/xlink" x="0px" y="0px"
	 viewBox="0 0 142 70" style="enable-background:new 0 0 142 70;" xml:space="preserve">
<style type="text/css">
	.st0{fill:#BFFFA0;stroke:#070707;stroke-miterlimit:10;}
</style>
<path class="st0" d="M36.1,24.8H24.5v4.7h11.6v12.9l-4.2,4.7H16.4v-6.6h12.5v-5.8H16.4v-7.3l6.3-9.7h13.5V24.8z M58.8,50.9h-8.3
	V34.6h-3.1v12.5H39V17.6h8.3v11.9h3.1V17.6h8.3V50.9z M81.5,40.9l-6.3,6.2H61.7V24l6.3-6.3h13.5V40.9z M73.2,39.9V24.8H70v15.1H73.2
	z M104.1,47.1H84.4V17.6h19.7v7.2H92.7v4.7h4.4v5.1h-4.4v5.3h11.4V47.1z M126.8,24.8h-11.6v4.7h11.6v12.9l-4.2,4.7h-15.5v-6.6h12.5
	v-5.8h-12.5v-7.3l6.3-9.7h13.5V24.8z"/>
</svg>
